#format: frame checksums
#version: 2
#hash: MD5
#tb 0: 1/24
#media_type 0: video
#codec_id 0: rawvideo
#dimensions 0: 640x480
#sar 0: 1/1
#stream#, dts,        pts, duration,     size, hash
0,          0,          0,        1,   460800, 549730883a0b56e6accaf021903daecf
0,          1,          1,        1,   460800, d5fc844d512a1decb0814b8692914d60
0,          2,          2,        1,   460800, 69753185911f99aa38bd9d9ee0ff24f7
0,          3,          3,        1,   460800, 2a985178c8b24e97708c6d33142f18a9
0,          4,          4,        1,   460800, a23818e43bdf4ee77291e0f74051d0bf
0,          5,          5,        1,   460800, f2c927b11350b9822065bec5f06b65d9
0,          6,          6,        1,   460800, 0c553fb530cf042eb84f5b13817a96a6
0,          7,          7,        1,   460800, a2be429b570ce30a7471b901f2ea5bcc
0,          8,          8,        1,   460800, b4f4a3b1988404b35c57688755beb8b9
0,          9,          9,        1,   460800, 2778b931d5e1570e1b809a87b1c45491
0,         10,         10,        1,   460800, 4eb341ebf32006d8bce13f1d132d84b2
0,         11,         11,        1,   460800, c39a34287300ee52547752198a2222fc
0,         12,         12,        1,   460800, f3ec59e6fc4e3c2e75f42bef34ca73b5
0,         13,         13,        1,   460800, 3f0e6116a94fefe890b79d1e94c156c6
0,         14,         14,        1,   460800, 0a8a597c0806818112bf8351f53d350a
0,         15,         15,        1,   460800, ab5c10023712ea21d595f5f856f53c66
0,         16,         16,        1,   460800, d4e218051ef32e68e3df58c8c3d6a1ab
0,         17,         17,        1,   460800, 24082fa9a277123a65398a36cb1b06af
0,         18,         18,        1,   460800, 4c6da38c984496fb514d5e4d8ebb13f8
0,         19,         19,        1,   460800, 5354435f662e80a47e1460d3ba020133
0,         20,         20,        1,   460800, 6854beaaf90ad9f055af80fc75e802ae
0,         21,         21,        1,   460800, cb40c57f9b61788fb4abe674b585142f
0,         22,         22,        1,   460800, 8f42c6553c33dc049f6fb5e71f631125
0,         23,         23,        1,   460800, d393b3efa7921caab3504044551bf6c3
0,         24,         24,        1,   460800, 60a099be31244b2f69ca6107cdbd7e06
0,         25,         25,        1,   460800, 05e542c105dc3f6f810d815fbf022afe
0,         26,         26,        1,   460800, bf478f55694eda43942a343e0b70eb19
0,         27,         27,        1,   460800, b1012ea5ff7232da20d2c7f242540bda
0,         28,         28,        1,   460800, 936cdd0fd147f9c3ad4e82bed77a6d2c
0,         29,         29,        1,   460800, 20baafde1ab281444d8cbf58995344c2
0,         30,         30,        1,   460800, b0bb3647ec88d1a862e2e92c32d95b65
0,         31,         31,        1,   460800, c86d78b06c281a8c3b63b4d7beeb3ddd
0,         32,         32,        1,   460800, 4d699157c55ec3439390c6ff400655b4
0,         33,         33,        1,   460800, 3327b0e09944dc13f0f2124cdfad86e9
0,         34,         34,        1,   460800, 5db56bb14cd478f70bb5244781f1382d
0,         35,         35,        1,   460800, cb8564d7a763444cc85512df3f7f10db
0,         36,         36,        1,   460800, 1256eac030985c04c4501ad5a72e9d66
0,         37,         37,        1,   460800, 20efdff9919faac5528cb576a21d6c2a
0,         38,         38,        1,   460800, 28420714ad1008772ce8100d917e2226
0,         39,         39,        1,   460800, 6c18dad0a470e8c0d62413b549e0ae2c
0,         40,         40,        1,   460800, 3d8b9352e5d21697733e5fb5fdd55d58
0,         41,         41,        1,   460800, 025e32ced915530eb814d399a8b28a20
0,         42,         42,        1,   460800, cc880a64b66f158595521182a1db8a36
0,         43,         43,        1,   460800, 322a2349a08e3b3cd18562050287c133
0,         44,         44,        1,   460800, c19c16a382449594f1dec7a77a4e264e
0,         45,         45,        1,   460800, 0d424b26031fa1db52fbd80c100e27a4
0,         46,         46,        1,   460800, cef6158cd43beee0aea777982613e493
0,         47,         47,        1,   460800, eb64a091a54ebb1077c667e1b33add2a
